<svg width="21" height="22" viewBox="0 0 21 22" fill="none" xmlns="http://www.w3.org/2000/svg">
<path d="M5.22746 16.7877C13.5941 25.9131 18.5988 19.5864 19.2899 18.6073C20.5813 17.0778 20.5577 15.5445 19.3535 15.0178L17.1772 13.9155C15.9428 13.3757 13.8181 14.2031 12.4315 15.7653L12.169 16.0611C8.33189 13.9523 6.2924 11.0258 5.22523 8.28607L5.36558 8.19253C7.10115 7.03009 8.21094 5.03819 7.84313 3.74153L7.27628 1.23573C6.96842 0.148293 5.6049 -0.000743824 4.18622 0.631178C4.18717 0.622544 4.18801 0.617009 4.18801 0.617009C4.18801 0.617009 3.99624 0.701242 3.69691 0.878555C3.67346 0.892226 3.64892 0.908531 3.62557 0.921674C3.57148 0.95493 3.51574 0.989546 3.45561 1.02799C3.42141 1.04944 3.38823 1.06883 3.35405 1.09085L3.35365 1.09418C1.23389 2.50437 -3.59148 7.16618 5.22746 16.7877Z" fill="white"/>
</svg>
