<svg width="18" height="18" viewBox="0 0 18 18" fill="none" xmlns="http://www.w3.org/2000/svg">
<path d="M17.0948 2.31449L16.4355 1.65524C15.852 1.07175 15.0758 0.75 14.25 0.75C13.4243 0.75 12.648 1.07175 12.0645 1.65524L3.6405 10.0792C3.23325 10.4865 2.99999 11.0497 2.99999 11.625C2.99999 12.2003 3.23325 12.7635 3.6405 13.1707L4.07999 13.6102C4.89375 14.424 6.35699 14.424 7.17075 13.6102L13.3905 7.39049C13.5367 7.24424 13.5367 7.00648 13.3905 6.86023C13.2442 6.71398 13.0065 6.71398 12.8602 6.86023L6.64049 13.08C6.10573 13.6147 5.14498 13.6147 4.61025 13.08L4.17076 12.6405C3.90301 12.3727 3.75001 12.003 3.75001 11.625C3.75001 11.247 3.90301 10.8772 4.17076 10.6095L12.5948 2.18546C13.479 1.30121 15.021 1.30121 15.9052 2.18546L16.5645 2.84471C17.0062 3.28645 17.25 3.87521 17.25 4.49998C17.25 5.12474 17.0063 5.71346 16.5645 6.15524L7.17075 15.549C6.55724 16.1625 5.742 16.5 4.87501 16.5C4.00802 16.5 3.19275 16.1625 2.58001 15.5498L1.701 14.6708C1.08749 14.0572 0.749988 13.242 0.749988 12.375C0.749988 11.508 1.08749 10.6927 1.701 10.0792L8.89049 2.88971C9.03674 2.74346 9.03674 2.5057 8.89049 2.35945C8.74424 2.2132 8.50648 2.2132 8.36023 2.35945L1.17074 9.54898C0.415512 10.3042 0 11.3077 0 12.375C0 13.4422 0.415512 14.4457 1.17 15.2002L2.04901 16.0792C2.80427 16.8345 3.80777 17.25 4.87501 17.25C5.94225 17.25 6.94575 16.8345 7.70101 16.0792L17.0948 6.6855C17.6782 6.10198 18 5.32573 18 4.49998C18 3.67423 17.6782 2.89798 17.0948 2.31449Z" fill="#404040"/>
</svg>
