<svg width="18" height="18" viewBox="0 0 18 18" fill="none" xmlns="http://www.w3.org/2000/svg">
<path d="M0.562485 3.93747H17.4375C17.748 3.93747 18 3.68545 18 3.37499C18 3.06447 17.7479 2.8125 17.4375 2.8125H0.562485C0.25202 2.8125 0 3.06447 0 3.37499C0 3.6855 0.25202 3.93747 0.562485 3.93747Z" fill="#484848"/>
<path d="M17.4375 8.4375H0.562485C0.251973 8.4375 0 8.68952 0 8.99999C0 9.31045 0.25202 9.56247 0.562485 9.56247H17.4375C17.748 9.56247 18 9.31045 18 8.99999C18 8.68952 17.748 8.4375 17.4375 8.4375Z" fill="#484848"/>
<path d="M17.4375 14.0625H0.562485C0.251973 14.0625 0 14.3145 0 14.625C0 14.9355 0.25202 15.1875 0.562485 15.1875H17.4375C17.748 15.1875 18 14.9355 18 14.625C18 14.3145 17.748 14.0625 17.4375 14.0625Z" fill="#484848"/>
</svg>
