<svg width="16" height="18" viewBox="0 0 16 18" fill="none" xmlns="http://www.w3.org/2000/svg">
<path d="M13.9375 1.40625H12.5V0.5625C12.5 0.251859 12.2762 0 12 0C11.7238 0 11.5 0.251859 11.5 0.5625V1.40625H4.5V0.5625C4.5 0.251859 4.27616 0 4 0C3.72384 0 3.5 0.251859 3.5 0.5625V1.40625H2.0625C0.925219 1.40625 0 2.44712 0 3.72656V15.6797C0 16.9591 0.925219 18 2.0625 18H13.9375C15.0748 18 16 16.9591 16 15.6797V3.72656C16 2.44712 15.0748 1.40625 13.9375 1.40625ZM2.0625 2.53125H3.5V3.09375C3.5 3.40439 3.72384 3.65625 4 3.65625C4.27616 3.65625 4.5 3.40439 4.5 3.09375V2.53125H11.5V3.09375C11.5 3.40439 11.7238 3.65625 12 3.65625C12.2762 3.65625 12.5 3.40439 12.5 3.09375V2.53125H13.9375C14.5234 2.53125 15 3.06745 15 3.72656V5.0625H1V3.72656C1 3.06745 1.47662 2.53125 2.0625 2.53125ZM13.9375 16.875H2.0625C1.47662 16.875 1 16.3388 1 15.6797V6.1875H15V15.6797C15 16.3388 14.5234 16.875 13.9375 16.875Z" fill="black" fill-opacity="0.8"/>
</svg>
