<svg width="21" height="22" viewBox="0 0 21 22" fill="none" xmlns="http://www.w3.org/2000/svg">
<path d="M19.7403 16.7273L17.1401 13.7065C16.2114 12.6276 14.3391 12.7169 13.73 13.8423C13.2836 14.6176 12.1453 14.9126 11.2117 14.5827C9.14467 13.7987 6.62336 10.9774 6.38274 8.97264C6.18804 8.09944 6.96892 7.2814 7.97246 7.15339C9.41737 6.99896 10.0824 5.50723 9.15379 4.42838L6.5536 1.4076C5.79671 0.636106 4.51457 0.440498 3.66879 0.967484L1.3731 2.39787C-0.936577 3.91985 0.566169 9.11613 4.93077 14.1867C9.29537 19.2573 14.6506 22.1361 17.0671 20.6304L19.3628 19.2C20.2226 18.5815 20.3904 17.4825 19.7403 16.7273Z" fill="white"/>
</svg>
