<svg width="10" height="10" viewBox="0 0 10 10" fill="none" xmlns="http://www.w3.org/2000/svg">
<path d="M5.55221 5.00075L9.88535 0.667593C10.0379 0.515034 10.0379 0.26769 9.88535 0.115151C9.73279 -0.0373877 9.48545 -0.0374072 9.33291 0.115151L4.99975 4.44831L0.666615 0.115151C0.514057 -0.0374072 0.266713 -0.0374072 0.114175 0.115151C-0.0383642 0.26771 -0.0383837 0.515054 0.114175 0.667593L4.44731 5.00074L0.114175 9.3339C-0.0383837 9.48646 -0.0383837 9.7338 0.114175 9.88634C0.190444 9.96261 0.290424 10.0007 0.390405 10.0007C0.490385 10.0007 0.590346 9.96261 0.666635 9.88634L4.99975 5.5532L9.33289 9.88634C9.40916 9.96261 9.50914 10.0007 9.60912 10.0007C9.7091 10.0007 9.80906 9.96261 9.88535 9.88634C10.0379 9.73378 10.0379 9.48644 9.88535 9.3339L5.55221 5.00075Z" fill="white"/>
</svg>
