<svg width="24" height="12" viewBox="0 0 24 12" fill="none" xmlns="http://www.w3.org/2000/svg">
<path d="M10.8171 0.0112323C-1.5595 0.318674 -0.0809959 8.2489 0.202709 9.41334C0.506572 11.3918 1.67764 12.3818 2.86607 11.8206L5.12725 10.9049C6.34551 10.3294 7.1184 8.18436 6.85244 6.11252L6.80207 5.72027C10.9134 4.21448 14.4595 4.60097 17.2257 5.59751L17.204 5.76477C16.9393 7.83682 17.711 9.98245 18.93 10.5575L21.191 11.7773C22.2129 12.2601 23.2215 11.3304 23.6777 9.84589C23.6836 9.85229 23.6872 9.85656 23.6872 9.85656C23.6872 9.85656 23.7498 9.65667 23.8129 9.31454C23.818 9.28788 23.8218 9.25866 23.8273 9.23243C23.8378 9.16981 23.8483 9.10505 23.8588 9.03446C23.8652 8.99458 23.8724 8.95684 23.8782 8.9166L23.876 8.91411C24.2065 6.38968 23.8648 -0.311067 10.8171 0.0112323Z" fill="white"/>
</svg>
