<svg width="15" height="14" viewBox="0 0 15 14" fill="none" xmlns="http://www.w3.org/2000/svg">
    <path d="M12.9126 0.961333C12.1566 0.256948 10.9323 0.256948 10.1763 0.961333L9.49131 1.60414L2.1999 8.40584L2.18441 8.42042C2.18065 8.42392 2.18065 8.42765 2.17666 8.42765C2.16891 8.43849 2.15729 8.44923 2.14966 8.46008C2.14966 8.46369 2.14567 8.46369 2.14567 8.46731C2.13792 8.47815 2.13417 8.48539 2.1263 8.49623C2.12255 8.49985 2.12255 8.50335 2.11867 8.50708C2.1148 8.51793 2.11092 8.52516 2.10693 8.53601C2.10693 8.53951 2.10318 8.53951 2.10318 8.54324L0.485431 13.0837C0.437975 13.2129 0.474051 13.3561 0.578285 13.452C0.651528 13.5195 0.750314 13.5572 0.853095 13.5569C0.895103 13.5562 0.936748 13.5501 0.976941 13.5388L5.83792 12.0253C5.84167 12.0253 5.84167 12.0253 5.84567 12.0218C5.8579 12.0184 5.86964 12.0135 5.88041 12.0072C5.88344 12.0069 5.8861 12.0056 5.88828 12.0037C5.89978 11.9965 5.91528 11.9891 5.9269 11.9819C5.9384 11.9748 5.95015 11.9639 5.96177 11.9567C5.96564 11.953 5.96939 11.953 5.96939 11.9495C5.97339 11.9458 5.98114 11.9423 5.98501 11.935L13.9614 4.49037C14.7161 3.78474 14.7161 2.64207 13.9614 1.93656L12.9126 0.961333ZM5.71408 11.1764L3.02046 8.66244L9.76225 2.3701L12.4559 4.88403L5.71408 11.1764ZM2.64105 9.33067L4.99424 11.5269L1.4607 12.6249L2.64105 9.33067ZM13.4158 3.98463L13.0055 4.37117L10.3117 1.85701L10.726 1.47058C11.1792 1.048 11.9136 1.048 12.3669 1.47058L13.4195 2.45304C13.8693 2.87788 13.8676 3.56181 13.4158 3.98463Z" fill="black"/>
</svg>
