<svg width="26" height="12" viewBox="0 0 26 12" fill="none" xmlns="http://www.w3.org/2000/svg">
    <path d="M11.7185 0.0276202C-1.68946 0.335062 -0.0877455 8.26529 0.219601 9.42973C0.548786 11.4082 1.81745 12.3982 3.10491 11.8369L5.55452 10.9213C6.8743 10.3458 7.7116 8.20074 7.42347 6.12891L7.36891 5.73666C11.8228 4.23087 15.6644 4.61736 18.6612 5.6139L18.6376 5.78116C18.3509 7.85321 19.1869 9.99884 20.5075 10.5739L22.957 11.7937C24.064 12.2765 25.1566 11.3468 25.6508 9.86228C25.6572 9.86868 25.6611 9.87294 25.6611 9.87294C25.6611 9.87294 25.7289 9.67305 25.7973 9.33092C25.8028 9.30427 25.807 9.27505 25.8129 9.24882C25.8242 9.18619 25.8357 9.12144 25.8471 9.05085C25.8539 9.01097 25.8617 8.97322 25.8681 8.93299L25.8656 8.9305C26.2237 6.40607 25.8535 -0.294679 11.7185 0.0276202Z" fill="white"/>
</svg>
