<svg width="17" height="14" viewBox="0 0 17 14" fill="none" xmlns="http://www.w3.org/2000/svg">
<path d="M16.6871 6.7071C16.6863 6.52868 16.5685 6.36798 16.3879 6.29864L0.756273 0.294665C0.577417 0.225969 0.370758 0.259749 0.229171 0.380795C0.0876306 0.501841 0.0379184 0.687361 0.102358 0.853888L2.39444 6.77652L0.160041 12.7212C0.0990945 12.8833 0.145723 13.0622 0.278769 13.182C0.282903 13.1857 0.287128 13.1894 0.291446 13.193C0.434133 13.3127 0.641157 13.3445 0.819314 13.274L16.3918 7.11844C16.5718 7.04727 16.688 6.8855 16.6871 6.7071ZM1.39612 1.50901L13.805 6.27512L3.26045 6.32635L1.39612 1.50901ZM1.44736 12.0535L3.26481 7.21824L13.8093 7.16703L1.44736 12.0535Z" fill="#748AA1"/>
</svg>
