<svg width="4" height="16" viewBox="0 0 4 16" fill="none" xmlns="http://www.w3.org/2000/svg">
<path d="M3.99976 1.99999C3.99976 0.895488 3.10427 0 1.99977 0C0.895265 0 -0.000222921 0.895488 -0.000222921 1.99999C-0.000222921 3.10449 0.895265 3.99998 1.99977 3.99998C3.10427 3.99998 3.99976 3.10449 3.99976 1.99999ZM0.999793 1.99999C0.999793 1.44751 1.44729 0.999974 1.99981 0.999974C2.55233 0.999974 2.99982 1.44747 2.99982 1.99999C2.99982 2.55251 2.55183 3.00001 1.99981 3.00001C1.44729 3.00001 0.999793 2.55251 0.999793 1.99999Z" fill="#5B5B5B"/>
<path d="M3.99976 14.0002C3.99976 12.8957 3.10427 12.0002 1.99977 12.0002C0.895265 12.0002 -0.000222921 12.8957 -0.000222921 14.0002C-0.000222921 15.1047 0.895265 16.0002 1.99977 16.0002C3.10427 16.0002 3.99976 15.1047 3.99976 14.0002ZM0.999793 14.0002C0.999793 13.4478 1.44729 13.0002 1.99981 13.0002C2.55233 13.0002 2.99982 13.4477 2.99982 14.0002C2.99982 14.5522 2.55183 15.0003 1.99981 15.0003C1.44729 15.0003 0.999793 14.5523 0.999793 14.0002Z" fill="#5B5B5B"/>
<path d="M3.99976 8.00072C3.99976 6.89622 3.10427 6.00073 1.99977 6.00073C0.895265 6.00073 -0.000222921 6.89622 -0.000222921 8.00072C-0.000222921 9.10522 0.895265 10.0007 1.99977 10.0007C3.10427 10.0007 3.99976 9.10522 3.99976 8.00072ZM0.999793 8.00072C0.999793 7.44824 1.44729 7.00071 1.99981 7.00071C2.55233 7.00071 2.99982 7.4482 2.99982 8.00072C2.99982 8.5527 2.55183 9.00074 1.99981 9.00074C1.44729 9.0007 0.999793 8.5527 0.999793 8.00072Z" fill="#5B5B5B"/>
</svg>
