<svg width="15" height="15" viewBox="0 0 15 15" fill="none" xmlns="http://www.w3.org/2000/svg">
<path d="M1.22048 11.1704C1.2206 11.1704 1.2206 11.1704 1.22048 11.1704L3.64371 9.578C4.22062 9.19897 4.9694 9.23193 5.50713 9.65979C5.9782 10.0347 6.65423 9.99634 7.07989 9.57067L9.54023 7.11033C9.96577 6.68479 10.0041 6.00864 9.62934 5.53769C9.20136 4.99985 9.16853 4.25094 9.54756 3.67416L11.14 1.25092C11.4184 0.827215 11.8503 0.573674 12.3562 0.53693C12.862 0.500431 13.3259 0.688909 13.6624 1.06806C15.5277 3.16842 15.4321 6.37022 13.4449 8.35729L8.32685 13.4755C7.2929 14.5094 5.93022 15.0312 4.56474 15.0312C3.30606 15.0312 2.04507 14.5877 1.0375 13.693C0.658465 13.3563 0.469866 12.8924 0.506487 12.3866C0.54323 11.8809 0.796772 11.449 1.22048 11.1704ZM1.66006 12.9921C3.38993 14.5283 6.02727 14.4495 7.66412 12.8126L12.7822 7.69457C14.419 6.05771 14.4979 3.42037 12.9616 1.6905C12.8315 1.54389 12.6695 1.4698 12.4792 1.4698C12.4611 1.4698 12.4427 1.47053 12.4239 1.47187C12.2098 1.48738 12.0413 1.58625 11.9234 1.76582L10.331 4.18893C10.1726 4.43014 10.1851 4.73044 10.3629 4.95395C11.0347 5.79831 10.966 7.01024 10.2031 7.77318L7.74274 10.2335C6.97979 10.9965 5.76787 11.0652 4.9235 10.3933C4.69999 10.2155 4.3997 10.203 4.15861 10.3615L1.73538 11.9539C1.55593 12.0718 1.45705 12.2402 1.44155 12.4544C1.42593 12.6686 1.49953 12.8495 1.66006 12.9921Z" fill="#5B5B5B"/>
</svg>
