<svg width="16" height="16" viewBox="0 0 16 16" fill="none" xmlns="http://www.w3.org/2000/svg">
<path d="M10.8433 4.68394L10.1712 4.01178L4.65997 9.52287C3.9755 10.2073 3.9755 11.3211 4.65997 12.0056C5.34443 12.6901 6.45818 12.6901 7.14268 12.0056L14.5443 4.60375C15.0537 4.09438 15.3342 3.41716 15.3342 2.69681C15.3342 1.97647 15.0537 1.29925 14.5443 0.789875C14.035 0.280531 13.3577 0 12.6374 0C11.917 0 11.2398 0.280531 10.7304 0.789906L1.73115 9.78919C1.04396 10.4764 0.665527 11.39 0.665527 12.3618C0.665527 13.3336 1.04396 14.2472 1.73115 14.9344C2.41834 15.6216 3.33196 16 4.30375 16C5.27553 16 6.18915 15.6216 6.87634 14.9344L13.9851 7.82562L13.3129 7.1535L6.20422 14.2622C5.69656 14.7699 5.02165 15.0494 4.30375 15.0494C3.58584 15.0494 2.91093 14.7699 2.40328 14.2622C1.89562 13.7546 1.61609 13.0797 1.61609 12.3618C1.61609 11.6439 1.89568 10.9689 2.40328 10.4613L11.4026 1.46203C12.0835 0.781187 13.1913 0.781187 13.8722 1.46203C14.5531 2.14291 14.5531 3.25078 13.8722 3.93166L6.47059 11.3334C6.15672 11.6473 5.646 11.6473 5.33212 11.3334C5.01825 11.0196 5.01825 10.5088 5.33212 10.195L10.8433 4.68394Z" fill="#5B5B5B"/>
</svg>
