<svg width="129" height="26" viewBox="0 0 129 26" fill="none" xmlns="http://www.w3.org/2000/svg">
    <rect x="0.5" y="0.5" width="128" height="25" rx="11.5" fill="#FAFBFF" stroke="#707070"/>
    <circle cx="17.5" cy="13.5" r="5.5" fill="#45D765"/>
    <path d="M32.7422 18H31.2422V6.625H32.7422V18ZM36.6328 9.54688L36.6797 10.6094C37.3255 9.79688 38.1693 9.39062 39.2109 9.39062C40.9974 9.39062 41.8984 10.3984 41.9141 12.4141V18H40.4688V12.4062C40.4635 11.7969 40.3229 11.3464 40.0469 11.0547C39.776 10.763 39.3516 10.6172 38.7734 10.6172C38.3047 10.6172 37.8932 10.7422 37.5391 10.9922C37.1849 11.2422 36.9089 11.5703 36.7109 11.9766V18H35.2656V9.54688H36.6328ZM50.0234 7.5V9.54688H51.6016V10.6641H50.0234V15.9062C50.0234 16.2448 50.0938 16.5 50.2344 16.6719C50.375 16.8385 50.6146 16.9219 50.9531 16.9219C51.1198 16.9219 51.349 16.8906 51.6406 16.8281V18C51.2604 18.1042 50.8906 18.1562 50.5312 18.1562C49.8854 18.1562 49.3984 17.9609 49.0703 17.5703C48.7422 17.1797 48.5781 16.625 48.5781 15.9062V10.6641H47.0391V9.54688H48.5781V7.5H50.0234ZM54.7422 10.5703C55.3828 9.78385 56.2161 9.39062 57.2422 9.39062C59.0286 9.39062 59.9297 10.3984 59.9453 12.4141V18H58.5V12.4062C58.4948 11.7969 58.3542 11.3464 58.0781 11.0547C57.8073 10.763 57.3828 10.6172 56.8047 10.6172C56.3359 10.6172 55.9245 10.7422 55.5703 10.9922C55.2161 11.2422 54.9401 11.5703 54.7422 11.9766V18H53.2969V6H54.7422V10.5703ZM65.6172 18.1562C64.4714 18.1562 63.5391 17.7812 62.8203 17.0312C62.1016 16.276 61.7422 15.2682 61.7422 14.0078V13.7422C61.7422 12.9036 61.901 12.1562 62.2188 11.5C62.5417 10.8385 62.9896 10.3229 63.5625 9.95312C64.1406 9.57812 64.7656 9.39062 65.4375 9.39062C66.5365 9.39062 67.3906 9.7526 68 10.4766C68.6094 11.2005 68.9141 12.237 68.9141 13.5859V14.1875H63.1875C63.2083 15.0208 63.4505 15.6953 63.9141 16.2109C64.3828 16.7214 64.9766 16.9766 65.6953 16.9766C66.2057 16.9766 66.638 16.8724 66.9922 16.6641C67.3464 16.4557 67.6562 16.1797 67.9219 15.8359L68.8047 16.5234C68.0964 17.612 67.0339 18.1562 65.6172 18.1562ZM65.4375 10.5781C64.8542 10.5781 64.3646 10.7917 63.9688 11.2188C63.5729 11.6406 63.3281 12.2344 63.2344 13H67.4688V12.8906C67.4271 12.1562 67.2292 11.5885 66.875 11.1875C66.5208 10.7812 66.0417 10.5781 65.4375 10.5781ZM74.2109 13.7031C74.2109 12.375 74.5156 11.3255 75.125 10.5547C75.7344 9.77865 76.5521 9.39062 77.5781 9.39062C78.5781 9.39062 79.3672 9.72656 79.9453 10.3984L80.0078 9.54688H81.3359V21.25H79.8906V17.2188C79.3073 17.8438 78.5312 18.1562 77.5625 18.1562C76.5417 18.1562 75.7266 17.7604 75.1172 16.9688C74.513 16.1719 74.2109 15.1172 74.2109 13.8047V13.7031ZM75.6562 13.8672C75.6562 14.8359 75.8594 15.5964 76.2656 16.1484C76.6771 16.7005 77.2292 16.9766 77.9219 16.9766C78.7812 16.9766 79.4375 16.5964 79.8906 15.8359V11.6953C79.4323 10.9505 78.7812 10.5781 77.9375 10.5781C77.2396 10.5781 76.6849 10.8568 76.2734 11.4141C75.862 11.9661 75.6562 12.7839 75.6562 13.8672ZM88.875 17.1641C88.3125 17.8255 87.487 18.1562 86.3984 18.1562C85.4974 18.1562 84.8099 17.8958 84.3359 17.375C83.8672 16.849 83.6302 16.0729 83.625 15.0469V9.54688H85.0703V15.0078C85.0703 16.2891 85.5911 16.9297 86.6328 16.9297C87.737 16.9297 88.4714 16.5182 88.8359 15.6953V9.54688H90.2812V18H88.9062L88.875 17.1641ZM95.9922 18.1562C94.8464 18.1562 93.9141 17.7812 93.1953 17.0312C92.4766 16.276 92.1172 15.2682 92.1172 14.0078V13.7422C92.1172 12.9036 92.276 12.1562 92.5938 11.5C92.9167 10.8385 93.3646 10.3229 93.9375 9.95312C94.5156 9.57812 95.1406 9.39062 95.8125 9.39062C96.9115 9.39062 97.7656 9.7526 98.375 10.4766C98.9844 11.2005 99.2891 12.237 99.2891 13.5859V14.1875H93.5625C93.5833 15.0208 93.8255 15.6953 94.2891 16.2109C94.7578 16.7214 95.3516 16.9766 96.0703 16.9766C96.5807 16.9766 97.013 16.8724 97.3672 16.6641C97.7214 16.4557 98.0312 16.1797 98.2969 15.8359L99.1797 16.5234C98.4714 17.612 97.4089 18.1562 95.9922 18.1562ZM95.8125 10.5781C95.2292 10.5781 94.7396 10.7917 94.3438 11.2188C93.9479 11.6406 93.7031 12.2344 93.6094 13H97.8438V12.8906C97.8021 12.1562 97.6042 11.5885 97.25 11.1875C96.8958 10.7812 96.4167 10.5781 95.8125 10.5781ZM106.188 17.1641C105.625 17.8255 104.799 18.1562 103.711 18.1562C102.81 18.1562 102.122 17.8958 101.648 17.375C101.18 16.849 100.943 16.0729 100.938 15.0469V9.54688H102.383V15.0078C102.383 16.2891 102.904 16.9297 103.945 16.9297C105.049 16.9297 105.784 16.5182 106.148 15.6953V9.54688H107.594V18H106.219L106.188 17.1641ZM113.305 18.1562C112.159 18.1562 111.227 17.7812 110.508 17.0312C109.789 16.276 109.43 15.2682 109.43 14.0078V13.7422C109.43 12.9036 109.589 12.1562 109.906 11.5C110.229 10.8385 110.677 10.3229 111.25 9.95312C111.828 9.57812 112.453 9.39062 113.125 9.39062C114.224 9.39062 115.078 9.7526 115.688 10.4766C116.297 11.2005 116.602 12.237 116.602 13.5859V14.1875H110.875C110.896 15.0208 111.138 15.6953 111.602 16.2109C112.07 16.7214 112.664 16.9766 113.383 16.9766C113.893 16.9766 114.326 16.8724 114.68 16.6641C115.034 16.4557 115.344 16.1797 115.609 15.8359L116.492 16.5234C115.784 17.612 114.721 18.1562 113.305 18.1562ZM113.125 10.5781C112.542 10.5781 112.052 10.7917 111.656 11.2188C111.26 11.6406 111.016 12.2344 110.922 13H115.156V12.8906C115.115 12.1562 114.917 11.5885 114.562 11.1875C114.208 10.7812 113.729 10.5781 113.125 10.5781Z" fill="#707070"/>
</svg>
