<svg width="12" height="12" viewBox="0 0 12 12" fill="none" xmlns="http://www.w3.org/2000/svg">
<path d="M7.0994 6.00986L11.772 1.33715C12.0761 1.03321 12.0761 0.541783 11.772 0.237843C11.468 -0.0660973 10.9766 -0.0660973 10.6727 0.237843L5.99995 4.91055L1.32737 0.237843C1.02329 -0.0660973 0.532003 -0.0660973 0.228062 0.237843C-0.0760208 0.541783 -0.0760208 1.03321 0.228062 1.33715L4.90064 6.00986L0.228062 10.6826C-0.0760208 10.9865 -0.0760208 11.4779 0.228062 11.7819C0.379534 11.9335 0.578698 12.0096 0.777718 12.0096C0.976739 12.0096 1.17576 11.9335 1.32737 11.7819L5.99995 7.10916L10.6727 11.7819C10.8243 11.9335 11.0233 12.0096 11.2223 12.0096C11.4213 12.0096 11.6204 11.9335 11.772 11.7819C12.0761 11.4779 12.0761 10.9865 11.772 10.6826L7.0994 6.00986Z" fill="#9DA8B2"/>
</svg>
