<svg width="20" height="26" viewBox="0 0 20 26" fill="none" xmlns="http://www.w3.org/2000/svg">
<path d="M9.99997 0C8.69634 0 7.6363 1.06004 7.6363 2.36366C7.6363 3.66728 8.69634 4.72731 9.99997 4.72731C11.3036 4.72731 12.3636 3.66728 12.3636 2.36366C12.3636 1.06004 11.3035 0 9.99997 0ZM9.99997 3.54546C9.34849 3.54546 8.81816 3.01513 8.81816 2.36366C8.81816 1.71218 9.34849 1.18186 9.99997 1.18186C10.6514 1.18186 11.1818 1.71212 11.1818 2.36366C11.1818 3.01519 10.6514 3.54546 9.99997 3.54546Z" fill="#232E42"/>
<path d="M2.90909 0C1.60547 0 0.545432 1.06004 0.545432 2.36366C0.545432 3.66728 1.60547 4.72731 2.90909 4.72731C4.21271 4.72731 5.27274 3.66728 5.27274 2.36366C5.27274 1.06004 4.21265 0 2.90909 0ZM2.90909 3.54546C2.25761 3.54546 1.72729 3.01513 1.72729 2.36366C1.72729 1.71218 2.25761 1.18186 2.90909 1.18186C3.56056 1.18186 4.09089 1.71212 4.09089 2.36366C4.09089 3.01519 3.56056 3.54546 2.90909 3.54546Z" fill="#232E42"/>
<path d="M17.0908 4.72726C18.3944 4.72726 19.4545 3.66722 19.4545 2.3636C19.4545 1.05998 18.3944 0 17.0908 0C15.7873 0 14.7272 1.06004 14.7272 2.36366C14.7272 3.66728 15.7872 4.72726 17.0908 4.72726ZM17.0908 1.1818C17.7423 1.1818 18.2726 1.71212 18.2726 2.3636C18.2726 3.01508 17.7423 3.54546 17.0908 3.54546C16.4393 3.54546 15.909 3.01513 15.909 2.36366C15.909 1.71218 16.4393 1.1818 17.0908 1.1818Z" fill="#232E42"/>
<path d="M9.99998 7.09091C8.69635 7.09091 7.63631 8.15095 7.63631 9.45457C7.63631 10.7582 8.69635 11.8182 9.99998 11.8182C11.3036 11.8182 12.3636 10.7582 12.3636 9.45457C12.3636 8.15095 11.3035 7.09091 9.99998 7.09091ZM9.99998 10.6364C9.3485 10.6364 8.81817 10.106 8.81817 9.45457C8.81817 8.80309 9.3485 8.27277 9.99998 8.27277C10.6515 8.27277 11.1818 8.80303 11.1818 9.45457C11.1818 10.1061 10.6515 10.6364 9.99998 10.6364Z" fill="#232E42"/>
<path d="M2.90909 7.09091C1.60547 7.09091 0.545432 8.15095 0.545432 9.45457C0.545432 10.7582 1.60547 11.8182 2.90909 11.8182C4.21271 11.8182 5.27274 10.7582 5.27274 9.45457C5.27274 8.15095 4.21265 7.09091 2.90909 7.09091ZM2.90909 10.6364C2.25761 10.6364 1.72729 10.106 1.72729 9.45457C1.72729 8.80309 2.25761 8.27277 2.90909 8.27277C3.56056 8.27277 4.09089 8.80303 4.09089 9.45457C4.09089 10.1061 3.56056 10.6364 2.90909 10.6364Z" fill="#232E42"/>
<path d="M17.0908 7.09091C15.7872 7.09091 14.7272 8.15095 14.7272 9.45457C14.7272 10.7582 15.7872 11.8182 17.0908 11.8182C18.3944 11.8182 19.4545 10.7582 19.4545 9.45457C19.4545 8.15095 18.3944 7.09091 17.0908 7.09091ZM17.0908 10.6364C16.4393 10.6364 15.909 10.106 15.909 9.45457C15.909 8.80309 16.4393 8.27277 17.0908 8.27277C17.7423 8.27277 18.2726 8.80309 18.2726 9.45457C18.2726 10.106 17.7423 10.6364 17.0908 10.6364Z" fill="#232E42"/>
<path d="M9.99998 14.1817C8.69635 14.1817 7.63631 15.2418 7.63631 16.5454C7.63631 17.849 8.69635 18.909 9.99998 18.909C11.3036 18.909 12.3636 17.849 12.3636 16.5454C12.3636 15.2418 11.3035 14.1817 9.99998 14.1817ZM9.99998 17.7272C9.3485 17.7272 8.81817 17.1969 8.81817 16.5454C8.81817 15.8939 9.3485 15.3636 9.99998 15.3636C10.6515 15.3636 11.1818 15.8939 11.1818 16.5454C11.1818 17.1969 10.6515 17.7272 9.99998 17.7272Z" fill="#232E42"/>
<path d="M9.99998 21.2726C8.69635 21.2726 7.63631 22.3327 7.63631 23.6363C7.63631 24.9399 8.69635 26 9.99998 26C11.3036 26 12.3636 24.9399 12.3636 23.6363C12.3636 22.3327 11.3035 21.2726 9.99998 21.2726ZM9.99998 24.8181C9.3485 24.8181 8.81817 24.2878 8.81817 23.6363C8.81817 22.9848 9.3485 22.4545 9.99998 22.4545C10.6515 22.4545 11.1818 22.9848 11.1818 23.6363C11.1818 24.2878 10.6515 24.8181 9.99998 24.8181Z" fill="#232E42"/>
<path d="M2.90909 14.1817C1.60547 14.1817 0.545432 15.2418 0.545432 16.5454C0.545432 17.849 1.60547 18.909 2.90909 18.909C4.21271 18.909 5.27274 17.849 5.27274 16.5454C5.27274 15.2418 4.21265 14.1817 2.90909 14.1817ZM2.90909 17.7272C2.25761 17.7272 1.72729 17.1969 1.72729 16.5454C1.72729 15.8939 2.25761 15.3636 2.90909 15.3636C3.56056 15.3636 4.09089 15.8939 4.09089 16.5454C4.09089 17.1969 3.56056 17.7272 2.90909 17.7272Z" fill="#232E42"/>
<path d="M17.0908 14.1817C15.7872 14.1817 14.7272 15.2418 14.7272 16.5454C14.7272 17.849 15.7872 18.909 17.0908 18.909C18.3944 18.909 19.4545 17.849 19.4545 16.5454C19.4545 15.2418 18.3944 14.1817 17.0908 14.1817ZM17.0908 17.7272C16.4393 17.7272 15.909 17.1969 15.909 16.5454C15.909 15.8939 16.4393 15.3636 17.0908 15.3636C17.7423 15.3636 18.2726 15.8939 18.2726 16.5454C18.2726 17.1969 17.7423 17.7272 17.0908 17.7272Z" fill="#232E42"/>
</svg>
