<svg width="18" height="18" viewBox="0 0 18 18" fill="none" xmlns="http://www.w3.org/2000/svg">
    <path d="M12.6914 13.9219C12.3031 13.9219 11.9883 14.2367 11.9883 14.625V16.5938H1.93359V1.40625H11.9883V3.375C11.9883 3.76334 12.3031 4.07812 12.6914 4.07812C13.0797 4.07812 13.3945 3.76334 13.3945 3.375V0.703125C13.3945 0.314789 13.0797 0 12.6914 0H1.23047C0.842133 0 0.527344 0.314789 0.527344 0.703125V17.2969C0.527344 17.6852 0.842133 18 1.23047 18H12.6914C13.0797 18 13.3945 17.6852 13.3945 17.2969V14.625C13.3945 14.2367 13.0797 13.9219 12.6914 13.9219Z" fill="#484848"/>
    <path d="M17.2667 8.50284L15.3774 6.61353C15.1028 6.33893 14.6577 6.33896 14.3831 6.61353C14.1084 6.88811 14.1084 7.33333 14.3831 7.60793L15.072 8.29689L9.24743 8.29686C8.85913 8.29686 8.54431 8.61164 8.54431 8.99998C8.54431 9.38832 8.8591 9.70311 9.24743 9.70311L15.0721 9.70314L14.3831 10.3922C14.1085 10.6667 14.1085 11.1119 14.3831 11.3865C14.6577 11.6611 15.1029 11.6611 15.3774 11.3865L17.2667 9.4972C17.2668 9.49713 17.2668 9.49706 17.2669 9.49702C17.4083 9.35545 17.4676 9.1918 17.4727 9.00002C17.4727 8.81045 17.3921 8.6282 17.2667 8.50284Z" fill="#484848"/>
</svg>
