<svg width="24" height="24" viewBox="0 0 24 24" fill="none" xmlns="http://www.w3.org/2000/svg">
<g clip-path="url(#clip0)">
<path d="M19.8264 12.8476C19.8264 12.4525 19.5059 12.132 19.1106 12.132C18.7153 12.132 18.3949 12.4525 18.3949 12.8476C18.3949 16.3486 15.5468 19.1966 12.0459 19.1966C8.54505 19.1966 5.69702 16.3486 5.69702 12.8476C5.69702 12.4525 5.37659 12.132 4.98126 12.132C4.58594 12.132 4.2655 12.4525 4.2655 12.8476C4.2655 16.8966 7.37427 20.2323 11.3301 20.5948V22.5216H8.67396C8.27863 22.5216 7.9582 22.8421 7.9582 23.2374C7.9582 23.6327 8.27863 23.9531 8.67396 23.9531H15.4179C15.8131 23.9531 16.1335 23.6327 16.1335 23.2374C16.1335 22.8421 15.8131 22.5216 15.4179 22.5216H12.7616V20.5948C16.7176 20.2324 19.8264 16.8966 19.8264 12.8476Z" fill="#489FFE"/>
<path d="M12.0458 17.4306C14.5728 17.4306 16.6287 15.3747 16.6287 12.8476V4.5359C16.6287 2.00904 14.5728 -0.046875 12.0458 -0.046875C9.51892 -0.046875 7.46301 2.00904 7.46301 4.5359V12.8476C7.46301 15.3747 9.51892 17.4306 12.0458 17.4306ZM8.89435 4.5359C8.89435 2.79822 10.3081 1.38465 12.0458 1.38465C13.7834 1.38465 15.1972 2.79822 15.1972 4.5359V12.8476C15.1972 14.5853 13.7834 15.9991 12.0458 15.9991C10.3081 15.9991 8.89435 14.5853 8.89435 12.8476V4.5359Z" fill="#489FFE"/>
</g>
<defs>
<clipPath id="clip0">
<rect width="24" height="24" fill="white"/>
</clipPath>
</defs>
</svg>
