<svg width="24" height="24" viewBox="0 0 24 24" fill="none" xmlns="http://www.w3.org/2000/svg">
<g clip-path="url(#clip0)">
<path d="M19.8264 12.8476C19.8264 12.4525 19.506 12.132 19.1107 12.132C18.7153 12.132 18.3949 12.4525 18.3949 12.8476C18.3949 16.3486 15.5469 19.1966 12.0459 19.1966C8.54508 19.1966 5.69705 16.3486 5.69705 12.8476C5.69705 12.4525 5.37662 12.132 4.98129 12.132C4.58597 12.132 4.26553 12.4525 4.26553 12.8476C4.26553 16.8966 7.3743 20.2323 11.3301 20.5948V22.5216H8.67399C8.27866 22.5216 7.95823 22.8421 7.95823 23.2374C7.95823 23.6327 8.27866 23.9531 8.67399 23.9531H15.418C15.8131 23.9531 16.1335 23.6327 16.1335 23.2374C16.1335 22.8421 15.8131 22.5216 15.418 22.5216H12.7616V20.5948C16.7176 20.2324 19.8264 16.8966 19.8264 12.8476Z" fill="#232E42"/>
<path d="M12.0458 17.4306C14.5728 17.4306 16.6287 15.3747 16.6287 12.8476V4.5359C16.6287 2.00904 14.5728 -0.046875 12.0458 -0.046875C9.51894 -0.046875 7.46303 2.00904 7.46303 4.5359V12.8476C7.46303 15.3747 9.51894 17.4306 12.0458 17.4306ZM8.89436 4.5359C8.89436 2.79822 10.3081 1.38465 12.0458 1.38465C13.7835 1.38465 15.1972 2.79822 15.1972 4.5359V12.8476C15.1972 14.5853 13.7835 15.9991 12.0458 15.9991C10.3081 15.9991 8.89436 14.5853 8.89436 12.8476V4.5359Z" fill="#232E42"/>
</g>
<defs>
<clipPath id="clip0">
<rect width="24" height="24" fill="white"/>
</clipPath>
</defs>
</svg>
