<svg width="16" height="4" viewBox="0 0 16 4" fill="none" xmlns="http://www.w3.org/2000/svg">
<path d="M2.84375 0.0664062C1.77757 0.0664062 0.910156 0.933816 0.910156 2C0.910156 3.06618 1.77757 3.93359 2.84375 3.93359C3.90993 3.93359 4.77734 3.06618 4.77734 2C4.77734 0.933816 3.90993 0.0664062 2.84375 0.0664062Z" fill="#9DA8B2"/>
<path d="M13.1562 0.0664062C12.0901 0.0664062 11.2227 0.933816 11.2227 2C11.2227 3.06618 12.0901 3.93359 13.1562 3.93359C14.2224 3.93359 15.0898 3.06618 15.0898 2C15.0898 0.933816 14.2224 0.0664062 13.1562 0.0664062Z" fill="#9DA8B2"/>
<path d="M8 0.0664062C6.93382 0.0664062 6.06641 0.933816 6.06641 2C6.06641 3.06618 6.93382 3.93359 8 3.93359C9.06618 3.93359 9.93359 3.06618 9.93359 2C9.93359 0.933816 9.06618 0.0664062 8 0.0664062Z" fill="#9DA8B2"/>
</svg>
