<svg width="129" height="26" viewBox="0 0 129 26" fill="none" xmlns="http://www.w3.org/2000/svg">
    <rect x="0.5" y="0.5" width="128" height="25" rx="11.5" fill="#FAFBFF" stroke="#707070"/>
    <path d="M23.3672 12.6797C23.3672 13.7943 23.1797 14.7682 22.8047 15.6016C22.4297 16.4297 21.8984 17.0625 21.2109 17.5C20.5234 17.9375 19.7214 18.1562 18.8047 18.1562C17.9089 18.1562 17.1146 17.9375 16.4219 17.5C15.7292 17.0573 15.1901 16.4297 14.8047 15.6172C14.4245 14.7995 14.2292 13.8542 14.2188 12.7812V11.9609C14.2188 10.8672 14.4089 9.90104 14.7891 9.0625C15.1693 8.22396 15.7057 7.58333 16.3984 7.14062C17.0964 6.69271 17.8932 6.46875 18.7891 6.46875C19.7005 6.46875 20.5026 6.6901 21.1953 7.13281C21.8932 7.57031 22.4297 8.20833 22.8047 9.04688C23.1797 9.88021 23.3672 10.8516 23.3672 11.9609V12.6797ZM21.875 11.9453C21.875 10.5964 21.6042 9.5625 21.0625 8.84375C20.5208 8.11979 19.763 7.75781 18.7891 7.75781C17.8411 7.75781 17.0938 8.11979 16.5469 8.84375C16.0052 9.5625 15.7266 10.5625 15.7109 11.8438V12.6797C15.7109 13.987 15.9844 15.0156 16.5312 15.7656C17.0833 16.5104 17.8411 16.8828 18.8047 16.8828C19.7734 16.8828 20.5234 16.5312 21.0547 15.8281C21.5859 15.1198 21.8594 14.1068 21.875 12.7891V11.9453ZM30.6094 17.1641C30.0469 17.8255 29.2214 18.1562 28.1328 18.1562C27.2318 18.1562 26.5443 17.8958 26.0703 17.375C25.6016 16.849 25.3646 16.0729 25.3594 15.0469V9.54688H26.8047V15.0078C26.8047 16.2891 27.3255 16.9297 28.3672 16.9297C29.4714 16.9297 30.2057 16.5182 30.5703 15.6953V9.54688H32.0156V18H30.6406L30.6094 17.1641ZM36.1797 7.5V9.54688H37.7578V10.6641H36.1797V15.9062C36.1797 16.2448 36.25 16.5 36.3906 16.6719C36.5312 16.8385 36.7708 16.9219 37.1094 16.9219C37.276 16.9219 37.5052 16.8906 37.7969 16.8281V18C37.4167 18.1042 37.0469 18.1562 36.6875 18.1562C36.0417 18.1562 35.5547 17.9609 35.2266 17.5703C34.8984 17.1797 34.7344 16.625 34.7344 15.9062V10.6641H33.1953V9.54688H34.7344V7.5H36.1797ZM43.0391 13.6953C43.0391 12.8672 43.2005 12.1224 43.5234 11.4609C43.8516 10.7995 44.3047 10.2891 44.8828 9.92969C45.4661 9.57031 46.1302 9.39062 46.875 9.39062C48.026 9.39062 48.9557 9.78906 49.6641 10.5859C50.3776 11.3828 50.7344 12.4427 50.7344 13.7656V13.8672C50.7344 14.6901 50.5755 15.4297 50.2578 16.0859C49.9453 16.737 49.4948 17.2448 48.9062 17.6094C48.3229 17.974 47.651 18.1562 46.8906 18.1562C45.7448 18.1562 44.8151 17.7578 44.1016 16.9609C43.3932 16.1641 43.0391 15.1094 43.0391 13.7969V13.6953ZM44.4922 13.8672C44.4922 14.8047 44.7083 15.5573 45.1406 16.125C45.5781 16.6927 46.1615 16.9766 46.8906 16.9766C47.625 16.9766 48.2083 16.6901 48.6406 16.1172C49.0729 15.5391 49.2891 14.7318 49.2891 13.6953C49.2891 12.7682 49.0677 12.0182 48.625 11.4453C48.1875 10.8672 47.6042 10.5781 46.875 10.5781C46.1615 10.5781 45.5859 10.862 45.1484 11.4297C44.7109 11.9974 44.4922 12.8099 44.4922 13.8672ZM53.2578 18V10.6641H51.9219V9.54688H53.2578V8.67969C53.2578 7.77344 53.5 7.07292 53.9844 6.57812C54.4688 6.08333 55.1536 5.83594 56.0391 5.83594C56.3724 5.83594 56.7031 5.88021 57.0312 5.96875L56.9531 7.14062C56.7083 7.09375 56.4479 7.07031 56.1719 7.07031C55.7031 7.07031 55.3411 7.20833 55.0859 7.48438C54.8307 7.75521 54.7031 8.14583 54.7031 8.65625V9.54688H56.5078V10.6641H54.7031V18H53.2578ZM61.7266 13.7031C61.7266 12.375 62.0312 11.3255 62.6406 10.5547C63.25 9.77865 64.0677 9.39062 65.0938 9.39062C66.0938 9.39062 66.8828 9.72656 67.4609 10.3984L67.5234 9.54688H68.8516V21.25H67.4062V17.2188C66.8229 17.8438 66.0469 18.1562 65.0781 18.1562C64.0573 18.1562 63.2422 17.7604 62.6328 16.9688C62.0286 16.1719 61.7266 15.1172 61.7266 13.8047V13.7031ZM63.1719 13.8672C63.1719 14.8359 63.375 15.5964 63.7812 16.1484C64.1927 16.7005 64.7448 16.9766 65.4375 16.9766C66.2969 16.9766 66.9531 16.5964 67.4062 15.8359V11.6953C66.9479 10.9505 66.2969 10.5781 65.4531 10.5781C64.7552 10.5781 64.2005 10.8568 63.7891 11.4141C63.3776 11.9661 63.1719 12.7839 63.1719 13.8672ZM76.3906 17.1641C75.8281 17.8255 75.0026 18.1562 73.9141 18.1562C73.013 18.1562 72.3255 17.8958 71.8516 17.375C71.3828 16.849 71.1458 16.0729 71.1406 15.0469V9.54688H72.5859V15.0078C72.5859 16.2891 73.1068 16.9297 74.1484 16.9297C75.2526 16.9297 75.987 16.5182 76.3516 15.6953V9.54688H77.7969V18H76.4219L76.3906 17.1641ZM83.5078 18.1562C82.362 18.1562 81.4297 17.7812 80.7109 17.0312C79.9922 16.276 79.6328 15.2682 79.6328 14.0078V13.7422C79.6328 12.9036 79.7917 12.1562 80.1094 11.5C80.4323 10.8385 80.8802 10.3229 81.4531 9.95312C82.0312 9.57812 82.6562 9.39062 83.3281 9.39062C84.4271 9.39062 85.2812 9.7526 85.8906 10.4766C86.5 11.2005 86.8047 12.237 86.8047 13.5859V14.1875H81.0781C81.099 15.0208 81.3411 15.6953 81.8047 16.2109C82.2734 16.7214 82.8672 16.9766 83.5859 16.9766C84.0964 16.9766 84.5286 16.8724 84.8828 16.6641C85.237 16.4557 85.5469 16.1797 85.8125 15.8359L86.6953 16.5234C85.987 17.612 84.9245 18.1562 83.5078 18.1562ZM83.3281 10.5781C82.7448 10.5781 82.2552 10.7917 81.8594 11.2188C81.4635 11.6406 81.2188 12.2344 81.125 13H85.3594V12.8906C85.3177 12.1562 85.1198 11.5885 84.7656 11.1875C84.4115 10.7812 83.9323 10.5781 83.3281 10.5781ZM93.7031 17.1641C93.1406 17.8255 92.3151 18.1562 91.2266 18.1562C90.3255 18.1562 89.638 17.8958 89.1641 17.375C88.6953 16.849 88.4583 16.0729 88.4531 15.0469V9.54688H89.8984V15.0078C89.8984 16.2891 90.4193 16.9297 91.4609 16.9297C92.5651 16.9297 93.2995 16.5182 93.6641 15.6953V9.54688H95.1094V18H93.7344L93.7031 17.1641ZM100.82 18.1562C99.6745 18.1562 98.7422 17.7812 98.0234 17.0312C97.3047 16.276 96.9453 15.2682 96.9453 14.0078V13.7422C96.9453 12.9036 97.1042 12.1562 97.4219 11.5C97.7448 10.8385 98.1927 10.3229 98.7656 9.95312C99.3438 9.57812 99.9688 9.39062 100.641 9.39062C101.74 9.39062 102.594 9.7526 103.203 10.4766C103.812 11.2005 104.117 12.237 104.117 13.5859V14.1875H98.3906C98.4115 15.0208 98.6536 15.6953 99.1172 16.2109C99.5859 16.7214 100.18 16.9766 100.898 16.9766C101.409 16.9766 101.841 16.8724 102.195 16.6641C102.549 16.4557 102.859 16.1797 103.125 15.8359L104.008 16.5234C103.299 17.612 102.237 18.1562 100.82 18.1562ZM100.641 10.5781C100.057 10.5781 99.5677 10.7917 99.1719 11.2188C98.776 11.6406 98.5312 12.2344 98.4375 13H102.672V12.8906C102.63 12.1562 102.432 11.5885 102.078 11.1875C101.724 10.7812 101.245 10.5781 100.641 10.5781Z" fill="#494949"/>
    <circle cx="115.5" cy="13.5" r="5.5" fill="#D74545"/>
</svg>
