<svg width="25" height="25" viewBox="0 0 25 25" fill="none" xmlns="http://www.w3.org/2000/svg">
<g clip-path="url(#clip0)">
<path d="M8.24417 0H6.96017C5.62219 0 4.53374 1.08846 4.53374 2.42643V22.5736C4.53374 23.9115 5.62219 25.0001 6.96017 25.0001H8.24417C9.58215 25.0001 10.6707 23.9115 10.6707 22.5736V2.42643C10.6706 1.08846 9.58207 0 8.24417 0ZM9.55595 22.5735C9.55595 23.2968 8.96742 23.8854 8.24409 23.8854H6.96017C6.23684 23.8854 5.64839 23.2968 5.64839 22.5735V2.42643C5.64839 1.70311 6.23684 1.11465 6.96017 1.11465H8.24417C8.9675 1.11465 9.55603 1.70311 9.55603 2.42643V22.5735H9.55595Z" fill="#232E42"/>
<path d="M19.0014 0H17.7174C16.3794 0 15.2908 1.08846 15.2908 2.42643V22.5736C15.2908 23.9115 16.3794 25.0001 17.7174 25.0001H19.0014C20.3393 25.0001 21.4278 23.9115 21.4278 22.5736V2.42643C21.4278 1.08846 20.3393 0 19.0014 0ZM20.3131 22.5735C20.3131 23.2968 19.7247 23.8854 19.0014 23.8854H17.7174C16.994 23.8854 16.4055 23.2968 16.4055 22.5735V2.42643C16.4055 1.70311 16.994 1.11465 17.7174 1.11465H19.0014C19.7247 1.11465 20.3131 1.70311 20.3131 2.42643V22.5735Z" fill="#232E42"/>
</g>
<defs>
<clipPath id="clip0">
<rect width="25" height="25" fill="white"/>
</clipPath>
</defs>
</svg>
