<svg width="16" height="16" viewBox="0 0 16 16" fill="none" xmlns="http://www.w3.org/2000/svg">
<path d="M3.66666 0.5H12.3333C14.0822 0.5 15.5 1.91777 15.5 3.66666V12.3333C15.5 14.0822 14.0822 15.5 12.3333 15.5H3.66666C1.91777 15.5 0.5 14.0822 0.5 12.3333V3.66666C0.5 1.91777 1.91777 0.5 3.66666 0.5Z" fill="white" stroke="#232E42"/>
<path d="M11.1807 7.71939L6.514 4.71939C6.35928 4.6196 6.153 4.66414 6.05322 4.81885C6.01838 4.87285 5.99991 4.93579 6 5.00007V11.0001C5.99969 11.1842 6.14869 11.3336 6.33278 11.3339C6.39706 11.334 6.45997 11.3156 6.514 11.2807L11.1807 8.28073C11.3357 8.18142 11.3808 7.97523 11.2815 7.82023C11.2556 7.77973 11.2212 7.74532 11.1807 7.71939Z" fill="#232E42"/>
</svg>
