<svg width="14" height="14" viewBox="0 0 14 14" fill="none" xmlns="http://www.w3.org/2000/svg">
    <path d="M12.2134 1.01963C10.8535 -0.340202 8.64114 -0.340202 7.2813 1.01963L2.08842 6.21248C1.92816 6.37274 1.92816 6.63237 2.08842 6.79263C2.24869 6.9529 2.50832 6.9529 2.66858 6.79263L7.86143 1.59978C8.86946 0.592548 10.6251 0.592548 11.6332 1.59978C12.6729 2.63947 12.6729 4.33145 11.6332 5.37114L4.38205 12.7039C3.76184 13.3241 2.68126 13.3241 2.06108 12.7039C1.42124 12.0641 1.42124 11.0232 2.06108 10.3833L9.02215 3.34021C9.25451 3.10784 9.65996 3.10784 9.89236 3.34021C10.1323 3.58018 10.1323 3.97084 9.89236 4.21084L3.22177 10.9635C3.08341 11.1018 3.08341 11.4052 3.22177 11.5436C3.38203 11.7039 3.64166 11.7039 3.80192 11.5436L10.4725 4.79096C11.0326 4.23082 11.0326 3.32017 10.4725 2.76006C9.93001 2.21759 8.98364 2.21838 8.44199 2.76006L1.48093 9.80315C0.528655 10.7554 0.528655 12.3317 1.48093 13.284C1.9461 13.7492 2.56429 13.9998 3.22174 13.9998C3.87919 13.9998 4.49744 13.7492 4.9622 13.2841L12.2133 5.95127C13.5732 4.59143 13.5732 2.37943 12.2134 1.01963Z"
          fill="#232E42"/>
</svg>
