<svg width="46" height="16" viewBox="0 0 46 16" fill="none" xmlns="http://www.w3.org/2000/svg">
<path d="M15.0117 13V3.04688H18.4229C19.5485 3.04688 20.4053 3.27246 20.9932 3.72363C21.5811 4.1748 21.875 4.84701 21.875 5.74023C21.875 6.19596 21.752 6.60612 21.5059 6.9707C21.2598 7.33529 20.8997 7.61784 20.4258 7.81836C20.9635 7.96419 21.3783 8.23991 21.6699 8.64551C21.9661 9.04655 22.1143 9.52962 22.1143 10.0947C22.1143 11.029 21.8135 11.7467 21.2119 12.248C20.6149 12.7493 19.7581 13 18.6416 13H15.0117ZM16.7412 8.50879V11.6191H18.6621C19.2044 11.6191 19.6283 11.4847 19.9336 11.2158C20.2389 10.9469 20.3916 10.5732 20.3916 10.0947C20.3916 9.06022 19.863 8.53158 18.8057 8.50879H16.7412ZM16.7412 7.2373H18.4365C18.9743 7.2373 19.3936 7.11654 19.6943 6.875C19.9997 6.62891 20.1523 6.28255 20.1523 5.83594C20.1523 5.34375 20.0111 4.98828 19.7285 4.76953C19.4505 4.55078 19.0153 4.44141 18.4229 4.44141H16.7412V7.2373ZM28.1025 13C28.0296 12.8587 27.9658 12.6286 27.9111 12.3096C27.3825 12.861 26.7354 13.1367 25.9697 13.1367C25.2269 13.1367 24.6208 12.9248 24.1514 12.501C23.682 12.0771 23.4473 11.5531 23.4473 10.9287C23.4473 10.1403 23.7389 9.53646 24.3223 9.11719C24.9102 8.69336 25.7487 8.48145 26.8379 8.48145H27.8564V7.99609C27.8564 7.61328 27.7493 7.30794 27.5352 7.08008C27.321 6.84766 26.9951 6.73145 26.5576 6.73145C26.1794 6.73145 25.8695 6.82715 25.6279 7.01855C25.3864 7.2054 25.2656 7.44466 25.2656 7.73633H23.6045C23.6045 7.33073 23.7389 6.95247 24.0078 6.60156C24.2767 6.24609 24.6413 5.9681 25.1016 5.76758C25.5664 5.56706 26.0837 5.4668 26.6533 5.4668C27.5192 5.4668 28.2096 5.68555 28.7246 6.12305C29.2396 6.55599 29.5039 7.16667 29.5176 7.95508V11.291C29.5176 11.9564 29.611 12.4873 29.7979 12.8838V13H28.1025ZM26.2773 11.8037C26.6055 11.8037 26.9131 11.724 27.2002 11.5645C27.4919 11.4049 27.7106 11.1908 27.8564 10.9219V9.52734H26.9609C26.3457 9.52734 25.8831 9.63444 25.5732 9.84863C25.2633 10.0628 25.1084 10.3659 25.1084 10.7578C25.1084 11.0768 25.2132 11.332 25.4229 11.5234C25.637 11.7103 25.9219 11.8037 26.2773 11.8037ZM34.2959 11.8105C34.7106 11.8105 35.0547 11.6898 35.3281 11.4482C35.6016 11.2067 35.7474 10.9082 35.7656 10.5527H37.3311C37.3128 11.013 37.1693 11.4437 36.9004 11.8447C36.6315 12.2412 36.2669 12.5557 35.8066 12.7881C35.3464 13.0205 34.8496 13.1367 34.3164 13.1367C33.2819 13.1367 32.4616 12.8018 31.8555 12.1318C31.2493 11.4619 30.9463 10.5368 30.9463 9.35645V9.18555C30.9463 8.0599 31.2471 7.15983 31.8486 6.48535C32.4502 5.80632 33.2705 5.4668 34.3096 5.4668C35.1891 5.4668 35.9046 5.72428 36.4561 6.23926C37.012 6.74967 37.3037 7.42188 37.3311 8.25586H35.7656C35.7474 7.83203 35.6016 7.4834 35.3281 7.20996C35.0592 6.93652 34.7152 6.7998 34.2959 6.7998C33.7581 6.7998 33.3434 6.99577 33.0518 7.3877C32.7601 7.77507 32.612 8.36523 32.6074 9.1582V9.4248C32.6074 10.2269 32.751 10.8262 33.0381 11.2227C33.3298 11.6146 33.749 11.8105 34.2959 11.8105ZM40.9883 9.82812L40.25 10.5869V13H38.5889V2.5H40.25V8.55664L40.7695 7.90723L42.8135 5.60352H44.8096L42.0615 8.68652L45.1035 13H43.1826L40.9883 9.82812Z" fill="black"/>
<g clip-path="url(#clip0)">
<path d="M3.35037 8.50061L9.6461 14.7943C9.92236 15.0698 10.3699 15.0698 10.6469 14.7943C10.9231 14.5187 10.9231 14.0711 10.6469 13.7956L4.85052 8.0013L10.6462 2.20702C10.9224 1.93147 10.9224 1.4839 10.6462 1.20764C10.3699 0.932088 9.92166 0.932088 9.64541 1.20764L3.34967 7.50123C3.07766 7.77393 3.07766 8.22854 3.35037 8.50061Z" fill="black"/>
</g>
<defs>
<clipPath id="clip0">
<rect width="14" height="14" fill="white" transform="translate(0 1)"/>
</clipPath>
</defs>
</svg>
