<svg width="26" height="27" viewBox="0 0 26 27" fill="none" xmlns="http://www.w3.org/2000/svg">
<path d="M2.6793 19.1265C1.18776 16.6125 0.665405 13.6405 1.21033 10.7686C1.75526 7.89679 3.32998 5.32262 5.63879 3.5295C7.9476 1.73637 10.8317 0.847651 13.7495 1.03021C16.6673 1.21277 19.418 2.45406 21.4853 4.52099C23.5525 6.58791 24.794 9.33829 24.9766 12.2557C25.1592 15.173 24.2703 18.0567 22.477 20.3652C20.6836 22.6737 18.1091 24.2482 15.2368 24.7931C12.3646 25.3379 9.39216 24.8157 6.87777 23.3244L6.8778 23.3242L2.7315 24.5087C2.55995 24.5577 2.37842 24.56 2.20571 24.5152C2.033 24.4705 1.87541 24.3804 1.74925 24.2542C1.62309 24.1281 1.53297 23.9705 1.48822 23.7978C1.44347 23.6252 1.44571 23.4437 1.49473 23.2721L2.67939 19.1264L2.6793 19.1265Z" stroke="#1068A8" stroke-width="2" stroke-linecap="round" stroke-linejoin="round"/>
</svg>
