<svg width="24" height="24" viewBox="0 0 24 24" fill="none" xmlns="http://www.w3.org/2000/svg">
<g clip-path="url(#clip0)">
<path d="M19.9688 23.2491H4.03125C2.84231 23.2491 1.875 22.2818 1.875 21.0929V9.74817C1.875 9.33398 2.21077 8.99817 2.625 8.99817C3.03923 8.99817 3.375 9.33398 3.375 9.74817V21.0929C3.375 21.4547 3.66938 21.7491 4.03125 21.7491H19.9688C20.3306 21.7491 20.625 21.4547 20.625 21.0929V9.74817C20.625 9.33398 20.9608 8.99817 21.375 8.99817C21.7892 8.99817 22.125 9.33398 22.125 9.74817V21.0929C22.125 22.2818 21.1577 23.2491 19.9688 23.2491Z" fill="#4F7BAB"/>
<path d="M23.2502 12.373C23.0583 12.373 22.8664 12.2997 22.7199 12.1533L13.3923 2.82575C12.6247 2.05812 11.3758 2.05812 10.6081 2.82575L1.28058 12.1533C0.987701 12.4462 0.512811 12.4462 0.219936 12.1533C-0.0729863 11.8604 -0.0729863 11.3855 0.219936 11.0927L9.5475 1.76506C10.8999 0.412623 13.1006 0.412623 14.453 1.76506L23.7805 11.0926C24.0735 11.3855 24.0735 11.8604 23.7805 12.1533C23.6341 12.2997 23.4422 12.373 23.2502 12.373Z" fill="#4F7BAB"/>
</g>
<defs>
<clipPath id="clip0">
<rect width="24" height="24" fill="white"/>
</clipPath>
</defs>
</svg>
