<svg width="14" height="14" viewBox="0 0 14 14" fill="none" xmlns="http://www.w3.org/2000/svg">
<g clip-path="url(#clip0)">
<path d="M7 9.9167C6.7585 9.9167 6.5625 9.7207 6.5625 9.4792V0.4375C6.5625 0.195999 6.7585 0 7 0C7.2415 0 7.4375 0.195999 7.4375 0.4375V9.4792C7.4375 9.7207 7.2415 9.9167 7 9.9167Z" fill="#489FFE"/>
<path d="M6.99994 9.91672C6.88789 9.91672 6.77596 9.8741 6.69072 9.78833L4.35742 7.45503C4.18652 7.28413 4.18652 7.00706 4.35742 6.83606C4.52832 6.66516 4.80539 6.66516 4.97639 6.83606L7.00047 8.86024L9.02466 6.83606C9.19556 6.66516 9.47273 6.66516 9.64363 6.83606C9.81453 7.00706 9.81453 7.28413 9.64363 7.45503L7.31023 9.78833C7.22392 9.8741 7.11198 9.91672 6.99994 9.91672Z" fill="#489FFE"/>
<path d="M12.3958 14H1.6042C0.719269 14 0 13.2807 0 12.3958V9.77075C0 9.52925 0.195999 9.33325 0.4375 9.33325C0.679001 9.33325 0.875 9.52925 0.875 9.77075V12.3958C0.875 12.7977 1.20227 13.125 1.6042 13.125H12.3958C12.7977 13.125 13.125 12.7977 13.125 12.3958V9.77075C13.125 9.52925 13.321 9.33325 13.5625 9.33325C13.804 9.33325 14 9.52925 14 9.77075V12.3958C14 13.2807 13.2807 14 12.3958 14Z" fill="#489FFE"/>
</g>
<defs>
<clipPath id="clip0">
<rect width="14" height="14" fill="white"/>
</clipPath>
</defs>
</svg>
