<svg width="24" height="24" viewBox="0 0 24 24" fill="none" xmlns="http://www.w3.org/2000/svg">
<path d="M2.53936 17.6121C1.17211 15.3072 0.693288 12.5825 1.1928 9.94964C1.69232 7.31674 3.13581 4.95675 5.25222 3.31282C7.36863 1.66889 10.0124 0.854116 12.687 1.02149C15.3617 1.18886 17.8832 2.32687 19.7782 4.22181C21.6731 6.11676 22.8111 8.6383 22.9785 11.3129C23.1459 13.9876 22.3311 16.6313 20.6872 18.7477C19.0433 20.8642 16.6833 22.3077 14.0504 22.8072C11.4175 23.3067 8.69281 22.8279 6.38795 21.4607L6.38798 21.4606L2.5872 22.5465C2.42995 22.5914 2.26355 22.5935 2.10523 22.5525C1.94692 22.5114 1.80246 22.4288 1.68681 22.3132C1.57117 22.1975 1.48856 22.0531 1.44753 21.8948C1.40651 21.7364 1.40857 21.57 1.4535 21.4128L2.53944 17.612L2.53936 17.6121Z" stroke="#4F7BAB" stroke-width="2" stroke-linecap="round" stroke-linejoin="round"/>
</svg>
