<svg width="53" height="32" viewBox="0 0 53 32" fill="none" xmlns="http://www.w3.org/2000/svg">
<path d="M12.7318 25.7665C12.2602 25.3656 11.8636 24.8847 11.5476 24.33C10.1554 21.886 9.29884 19.1049 9.07053 16.2872C8.84222 13.4696 9.23989 10.5869 10.2205 7.95066C10.5357 7.10347 11.0343 6.3763 11.7027 5.78932C12.3288 5.2395 13.0905 4.83656 13.9055 4.62405C14.7241 4.41061 15.5904 4.39074 16.4107 4.56659C17.2855 4.75412 18.0799 5.14745 18.772 5.73577C18.9872 5.91874 19.0454 6.22726 18.9116 6.47605L16.7856 10.4289C16.6893 10.6079 16.5088 10.7259 16.3062 10.7424L14.0411 10.9258C13.244 14.204 13.5249 17.6714 14.8394 20.7785L17.1045 20.5949C17.3071 20.5785 17.5041 20.666 17.628 20.8271L20.3627 24.3862C20.5348 24.6102 20.527 24.924 20.344 25.1393C19.7557 25.8313 19.0349 26.3474 18.2017 26.6733C17.4204 26.9789 16.5622 27.0988 15.72 27.0199C14.8814 26.9414 14.0648 26.6663 13.3583 26.2244C13.1369 26.086 12.9279 25.9331 12.7318 25.7665ZM17.6141 6.35865C16.6156 5.68341 15.3987 5.4731 14.2078 5.78362C12.8687 6.13276 11.8248 7.07488 11.3436 8.36845C9.45837 13.4366 9.91221 19.0382 12.5887 23.7368C13.2719 24.936 14.4538 25.6979 15.8317 25.8269C17.057 25.9417 18.2242 25.5382 19.101 24.711L16.8764 21.8157L14.5108 22.0074C14.259 22.0278 14.0216 21.8882 13.917 21.6583C12.2858 18.0737 11.9563 14.0065 12.9892 10.206C13.0554 9.96236 13.2673 9.78633 13.519 9.76596L15.8846 9.57431L17.6141 6.35865Z" fill="#232E42"/>
<path d="M33.7318 25.7665C33.2602 25.3656 32.8636 24.8847 32.5476 24.33C31.1554 21.886 30.2988 19.1049 30.0705 16.2872C29.8422 13.4696 30.2399 10.5869 31.2205 7.95066C31.5357 7.10347 32.0343 6.3763 32.7027 5.78932C33.3288 5.2395 34.0905 4.83656 34.9055 4.62405C35.7241 4.41061 36.5904 4.39074 37.4107 4.56659C38.2855 4.75412 39.0799 5.14745 39.772 5.73577C39.9872 5.91874 40.0454 6.22726 39.9116 6.47605L37.7856 10.4289C37.6893 10.6079 37.5088 10.7259 37.3062 10.7424L35.0411 10.9258C34.244 14.204 34.5249 17.6714 35.8394 20.7785L38.1045 20.5949C38.3071 20.5785 38.5041 20.666 38.628 20.8271L41.3627 24.3862C41.5348 24.6102 41.527 24.924 41.344 25.1393C40.7557 25.8313 40.0349 26.3474 39.2017 26.6733C38.4204 26.9789 37.5622 27.0988 36.72 27.0199C35.8814 26.9414 35.0648 26.6663 34.3583 26.2244C34.1369 26.086 33.9279 25.9331 33.7318 25.7665ZM38.6141 6.35865C37.6156 5.68341 36.3987 5.4731 35.2078 5.78362C33.8687 6.13276 32.8248 7.07488 32.3436 8.36845C30.4584 13.4366 30.9122 19.0382 33.5887 23.7368C34.2719 24.936 35.4538 25.6979 36.8317 25.8269C38.057 25.9417 39.2242 25.5382 40.101 24.711L37.8764 21.8157L35.5108 22.0074C35.259 22.0278 35.0216 21.8882 34.917 21.6583C33.2858 18.0737 32.9563 14.0065 33.9892 10.206C34.0554 9.96236 34.2673 9.78633 34.519 9.76596L36.8846 9.57431L38.6141 6.35865Z" fill="#232E42"/>
<path d="M27.9607 16.3536C28.156 16.1583 28.156 15.8417 27.9607 15.6464L24.7787 12.4645C24.5835 12.2692 24.2669 12.2692 24.0716 12.4645C23.8763 12.6597 23.8763 12.9763 24.0716 13.1716L26.9 16L24.0716 18.8284C23.8763 19.0237 23.8763 19.3403 24.0716 19.5355C24.2669 19.7308 24.5835 19.7308 24.7787 19.5355L27.9607 16.3536ZM18.0001 16.5L27.6071 16.5V15.5L18.0001 15.5V16.5Z" fill="#232E42"/>
</svg>
