<svg width="25" height="22" viewBox="0 0 25 22" fill="none" xmlns="http://www.w3.org/2000/svg">
<g clip-path="url(#clip0)">
<path d="M22.4297 4.32414L17.7422 0.199142C17.5948 0.0704504 17.3952 -0.00126442 17.1875 -0.000233171H4.6875C3.39307 -0.000233171 2.34375 0.923165 2.34375 2.06227V19.9373C2.34375 21.0764 3.39307 21.9998 4.6875 21.9998H20.3125C21.6069 21.9998 22.6562 21.0764 22.6562 19.9373V4.81227C22.6575 4.62952 22.5759 4.45391 22.4297 4.32414ZM21.0938 19.9373C21.0938 20.317 20.744 20.6248 20.3125 20.6248H4.6875C4.25601 20.6248 3.90625 20.317 3.90625 19.9373V2.06227C3.90625 1.68255 4.25601 1.37477 4.6875 1.37477H16.4062V4.12477C16.4062 4.88415 17.1058 5.49977 17.9688 5.49977H21.0938V19.9373Z" fill="#4F8FFF"/>
</g>
<defs>
<clipPath id="clip0">
<rect width="25" height="22" fill="white"/>
</clipPath>
</defs>
</svg>
