<svg width="16" height="16" viewBox="0 0 16 16" fill="none" xmlns="http://www.w3.org/2000/svg">
<path d="M13.6667 4H10.3333C10.1493 4 10 3.85 10 3.66666V0.333344C10 0.149344 9.85066 0 9.66666 0H3C2.44866 0 2 0.448656 2 1V15C2 15.5513 2.44866 16 3 16H13C13.5513 16 14 15.5513 14 15V4.33334C14 4.14934 13.8507 4 13.6667 4ZM13.3333 15C13.3333 15.1833 13.184 15.3333 13 15.3333H3C2.816 15.3333 2.66666 15.1833 2.66666 15V1C2.66666 0.816656 2.816 0.666656 3 0.666656H9.33334V3.66666C9.33334 4.218 9.782 4.66666 10.3333 4.66666H13.3333V15Z" fill="black"/>
<path d="M13.902 4.098L9.90198 0.0980035C9.77198 -0.0319965 9.56063 -0.0319965 9.43063 0.0980035C9.30063 0.228004 9.30063 0.439347 9.43063 0.569347L13.4306 4.56935C13.496 4.634 13.5813 4.66669 13.6666 4.66669C13.752 4.66669 13.8373 4.63403 13.902 4.56935C14.032 4.43935 14.032 4.228 13.902 4.098Z" fill="black"/>
</svg>
