<svg width="16" height="16" viewBox="0 0 16 16" fill="none" xmlns="http://www.w3.org/2000/svg">
<g clip-path="url(#clip0)">
<path d="M8 11.3334C7.724 11.3334 7.5 11.1094 7.5 10.8334V0.5C7.5 0.223999 7.724 0 8 0C8.276 0 8.5 0.223999 8.5 0.5V10.8334C8.5 11.1094 8.276 11.3334 8 11.3334Z" fill="#232E42"/>
<path d="M8 11.3334C7.87195 11.3334 7.74402 11.2847 7.64661 11.1866L4.97998 8.52002C4.78467 8.32471 4.78467 8.00806 4.97998 7.81262C5.17529 7.61731 5.49194 7.61731 5.68738 7.81262L8.00061 10.126L10.314 7.81262C10.5093 7.61731 10.826 7.61731 11.0214 7.81262C11.2167 8.00806 11.2167 8.32471 11.0214 8.52002L8.35461 11.1866C8.25598 11.2847 8.12805 11.3334 8 11.3334Z" fill="#232E42"/>
<path d="M14.1666 16H1.83337C0.822021 16 0 15.178 0 14.1666V11.1666C0 10.8906 0.223999 10.6666 0.5 10.6666C0.776001 10.6666 1 10.8906 1 11.1666V14.1666C1 14.626 1.37402 15 1.83337 15H14.1666C14.626 15 15 14.626 15 14.1666V11.1666C15 10.8906 15.224 10.6666 15.5 10.6666C15.776 10.6666 16 10.8906 16 11.1666V14.1666C16 15.178 15.178 16 14.1666 16Z" fill="#232E42"/>
</g>
<defs>
<clipPath id="clip0">
<rect width="16" height="16" fill="white"/>
</clipPath>
</defs>
</svg>
