<svg width="26" height="27" viewBox="0 0 26 27" fill="none" xmlns="http://www.w3.org/2000/svg">
<path d="M14.0156 7.0136V12.5843L17.713 16.2811C18.1096 16.6777 18.1096 17.3207 17.713 17.7172C17.3163 18.1138 16.6733 18.1138 16.2767 17.7172L12.2819 13.723C12.0914 13.5326 11.9844 13.2742 11.9844 13.0049V7.0136C11.9844 6.45275 12.4391 5.99812 13 5.99812C13.5609 5.99812 14.0156 6.45275 14.0156 7.0136ZM16.9948 0.0067749H9.00519C6.87796 0.0067749 4.77933 0.754271 3.10014 2.21433V1.02226C3.10014 0.461406 2.64545 0.0067749 2.08452 0.0067749C1.52359 0.0067749 1.06889 0.461406 1.06889 1.02226V5.0165C1.06889 5.57735 1.5275 6.03198 2.08452 6.03198H6.07933C6.64026 6.03198 7.09495 5.57735 7.09495 5.0165C7.09495 4.45565 6.64026 4.00102 6.07933 4.00102H4.15812C5.4436 2.76188 7.17884 2.03774 9.00519 2.03774H16.9948C20.8403 2.03774 23.9688 5.16578 23.9688 9.0107V16.9991C23.9688 20.8441 20.8403 23.9721 16.9948 23.9721H9.00519C5.15973 23.9721 2.03125 20.8441 2.03125 16.9992V13.0049C2.03125 12.4441 1.57655 11.9895 1.01562 11.9895C0.454695 11.9895 0 12.4441 0 13.0049V16.9992C0 21.964 4.0397 26.0031 9.00519 26.0031H16.9948C21.9603 26.0031 26 21.964 26 16.9992V9.0107C26 4.0459 21.9603 0.0067749 16.9948 0.0067749V0.0067749Z" fill="#828B92"/>
</svg>
