<svg width="14" height="14" viewBox="0 0 14 14" fill="none" xmlns="http://www.w3.org/2000/svg">
<path d="M13.4531 6.45312H7.54688V0.546875C7.54688 0.244836 7.30204 0 7 0C6.69796 0 6.45312 0.244836 6.45312 0.546875V6.45312H0.546875C0.244836 6.45312 0 6.69796 0 7C0 7.30204 0.244836 7.54688 0.546875 7.54688H6.45312V13.4531C6.45312 13.7552 6.69796 14 7 14C7.30204 14 7.54688 13.7552 7.54688 13.4531V7.54688H13.4531C13.7552 7.54688 14 7.30204 14 7C14 6.69796 13.7552 6.45312 13.4531 6.45312Z" fill="#3A4862"/>
</svg>
