<svg width="12" height="14" viewBox="0 0 12 14" fill="none" xmlns="http://www.w3.org/2000/svg">
<path d="M10.5938 1.75H8.1875V1.3125C8.1875 0.588793 7.59871 0 6.875 0H5.125C4.40129 0 3.8125 0.588793 3.8125 1.3125V1.75H1.40625C0.803156 1.75 0.3125 2.24066 0.3125 2.84375V4.375C0.3125 4.61661 0.508391 4.8125 0.75 4.8125H0.989094L1.36707 12.7499C1.40045 13.4509 1.97631 14 2.67806 14H9.32194C10.0237 14 10.5996 13.4509 10.6329 12.7499L11.0109 4.8125H11.25C11.4916 4.8125 11.6875 4.61661 11.6875 4.375V2.84375C11.6875 2.24066 11.1968 1.75 10.5938 1.75ZM4.6875 1.3125C4.6875 1.07127 4.88377 0.875 5.125 0.875H6.875C7.11623 0.875 7.3125 1.07127 7.3125 1.3125V1.75H4.6875V1.3125ZM1.1875 2.84375C1.1875 2.72314 1.28564 2.625 1.40625 2.625H10.5938C10.7144 2.625 10.8125 2.72314 10.8125 2.84375V3.9375C10.6777 3.9375 1.74621 3.9375 1.1875 3.9375V2.84375ZM9.75892 12.7083C9.74779 12.942 9.55584 13.125 9.32194 13.125H2.67806C2.44414 13.125 2.25218 12.942 2.24108 12.7083L1.86508 4.8125H10.1349L9.75892 12.7083Z" fill="#C63434"/>
<path d="M6 12.25C6.24161 12.25 6.4375 12.0541 6.4375 11.8125V6.125C6.4375 5.88339 6.24161 5.6875 6 5.6875C5.75839 5.6875 5.5625 5.88339 5.5625 6.125V11.8125C5.5625 12.0541 5.75836 12.25 6 12.25Z" fill="#C63434"/>
<path d="M8.1875 12.25C8.42911 12.25 8.625 12.0541 8.625 11.8125V6.125C8.625 5.88339 8.42911 5.6875 8.1875 5.6875C7.94589 5.6875 7.75 5.88339 7.75 6.125V11.8125C7.75 12.0541 7.94586 12.25 8.1875 12.25Z" fill="#C63434"/>
<path d="M3.8125 12.25C4.05411 12.25 4.25 12.0541 4.25 11.8125V6.125C4.25 5.88339 4.05411 5.6875 3.8125 5.6875C3.57089 5.6875 3.375 5.88339 3.375 6.125V11.8125C3.375 12.0541 3.57086 12.25 3.8125 12.25Z" fill="#C63434"/>
</svg>
