<svg width="23" height="27" viewBox="0 0 23 27" fill="none" xmlns="http://www.w3.org/2000/svg">
<path d="M22.225 5.11658L17.1625 0.242265C17.0033 0.0901968 16.7878 0.00545485 16.5635 0.00667342H3.06348C1.66549 0.00667342 0.532227 1.09781 0.532227 2.44383V23.5659C0.532227 24.9119 1.66549 26.003 3.06348 26.003H19.9385C21.3365 26.003 22.4697 24.9119 22.4697 23.5659V5.69337C22.471 5.47743 22.383 5.26992 22.225 5.11658ZM20.7822 23.5659C20.7822 24.0145 20.4045 24.3782 19.9385 24.3782H3.06348C2.59746 24.3782 2.21973 24.0145 2.21973 23.5659V2.44383C2.21973 1.99514 2.59746 1.63144 3.06348 1.63144H15.7197V4.88099C15.7197 5.77832 16.4753 6.50576 17.4072 6.50576H20.7822V23.5659Z" fill="#1068A8"/>
</svg>
