<svg width="22" height="22" viewBox="0 0 22 22" fill="none" xmlns="http://www.w3.org/2000/svg">
<path d="M21.1406 10.1406H11.8594V0.859375C11.8594 0.384742 11.4746 0 11 0C10.5254 0 10.1406 0.384742 10.1406 0.859375V10.1406H0.859375C0.384742 10.1406 0 10.5254 0 11C0 11.4746 0.384742 11.8594 0.859375 11.8594H10.1406V21.1406C10.1406 21.6153 10.5254 22 11 22C11.4746 22 11.8594 21.6153 11.8594 21.1406V11.8594H21.1406C21.6153 11.8594 22 11.4746 22 11C22 10.5254 21.6153 10.1406 21.1406 10.1406Z" fill="#232E42"/>
</svg>
