<svg width="24" height="12" viewBox="0 0 24 12" fill="none" xmlns="http://www.w3.org/2000/svg">
<path d="M18.8572 0.857086C16.0212 0.857086 13.7143 3.16402 13.7143 5.99993C13.7143 7.32184 14.2295 8.51653 15.0519 9.4285H8.94809C9.77051 8.51653 10.2857 7.32184 10.2857 5.99993C10.2857 3.16396 7.97876 0.857086 5.14284 0.857086C2.30693 0.857086 0 3.16402 0 5.99999C0 8.83596 2.30693 11.1428 5.14284 11.1428H18.8572C21.6931 11.1428 24 8.8359 24 5.99999C24 3.16408 21.6931 0.857086 18.8572 0.857086ZM1.71428 5.99999C1.71428 4.10907 3.25193 2.57143 5.14284 2.57143C7.03376 2.57143 8.57141 4.10907 8.57141 5.99999C8.57141 7.8909 7.03376 9.42855 5.14284 9.42855C3.25193 9.42855 1.71428 7.8909 1.71428 5.99999ZM18.8572 9.42855C16.9662 9.42855 15.4286 7.8909 15.4286 5.99999C15.4286 4.10907 16.9662 2.57143 18.8572 2.57143C20.7481 2.57143 22.2857 4.10907 22.2857 5.99999C22.2857 7.8909 20.7481 9.42855 18.8572 9.42855Z" fill="#232E42"/>
</svg>
