<svg width="15" height="14" viewBox="0 0 15 14" fill="none" xmlns="http://www.w3.org/2000/svg">
<path d="M13.9285 2.00001H10.1785V1.5C10.1785 0.671571 9.45898 0 8.57138 0H6.42852C5.54092 0 4.82138 0.671571 4.82138 1.5V2.00001H1.07137C0.775492 2.00001 0.535645 2.22386 0.535645 2.50002C0.535645 2.77617 0.775523 2.99999 1.07137 2.99999H1.65368L2.67851 13.5455C2.70378 13.8037 2.93641 14.001 3.21423 14H11.7857C12.0635 14.0011 12.2961 13.8037 12.3214 13.5455L13.3462 2.99999H13.9285C14.2244 2.99999 14.4643 2.77614 14.4643 2.49999C14.4643 2.22383 14.2244 2.00001 13.9285 2.00001ZM5.89279 1.5C5.89279 1.22385 6.13264 0.999988 6.42852 0.999988H8.57138C8.86726 0.999988 9.10711 1.22385 9.10711 1.5V2.00001H5.89283V1.5H5.89279ZM11.2966 13H3.70335L2.73209 2.99999H5.3571H12.2705L11.2966 13Z" fill="#B61E1E"/>
<path d="M5.89285 11.4667C5.89278 11.466 5.89275 11.4653 5.89269 11.4646L5.35696 4.46464C5.33597 4.18848 5.07907 3.98054 4.78323 4.00013C4.48735 4.01973 4.26455 4.2595 4.28555 4.53562L4.82127 11.5356C4.84127 11.7978 5.07537 12.0008 5.357 12.0001H5.39557C5.69073 11.981 5.91337 11.7422 5.89285 11.4667Z" fill="#B61E1E"/>
<path d="M7.50008 4.00003C7.2042 4.00003 6.96436 4.22389 6.96436 4.50004V11.5C6.96436 11.7762 7.2042 12 7.50008 12C7.79596 12 8.0358 11.7762 8.0358 11.5V4.50004C8.0358 4.22389 7.79596 4.00003 7.50008 4.00003Z" fill="#B61E1E"/>
<path d="M10.2164 4.00006C9.92051 3.98046 9.66366 4.18841 9.64266 4.46456L9.10693 11.4645C9.08524 11.7399 9.30685 11.9796 9.60191 11.9999C9.60282 11.9999 9.6037 12 9.60461 12H9.64266C9.92428 12.0007 10.1584 11.7977 10.1784 11.5355L10.7141 4.53555C10.7351 4.25942 10.5123 4.01969 10.2164 4.00006Z" fill="#B61E1E"/>
</svg>
