<svg width="24" height="24" viewBox="0 0 24 24" fill="none" xmlns="http://www.w3.org/2000/svg">
    <path d="M22.5938 10.5487V10.5469C22.5938 4.73126 17.8414 0 12 0C6.15857 0 1.40625 4.73126 1.40625 10.5469V10.5487C0.552979 11.1909 0 12.2117 0 13.3594V16.2656C0 18.2042 1.57709 19.7812 3.51562 19.7812H4.92188C5.31024 19.7812 5.625 19.4665 5.625 19.0781V10.5469C5.625 7.05762 8.48474 4.21875 12 4.21875C15.5151 4.21875 18.375 7.05762 18.375 10.5469V19.0781C18.375 19.4665 18.6898 19.7812 19.0781 19.7812H19.7812V20.4844C19.7812 20.872 19.4658 21.1875 19.0781 21.1875H15.4417C15.1512 20.3692 14.3698 19.7812 13.4531 19.7812H10.5938C9.43066 19.7812 8.48438 20.7275 8.48438 21.8906C8.48438 23.0537 9.43066 24 10.5938 24H13.4531C14.3698 24 15.1512 23.412 15.4417 22.5938H19.0781C20.2412 22.5938 21.1875 21.6475 21.1875 20.4844V19.7106C22.7902 19.3839 24 17.9634 24 16.2656V13.3594C24 12.2117 23.447 11.1909 22.5938 10.5487ZM13.4531 22.5938H10.5938C10.2061 22.5938 9.89062 22.2783 9.89062 21.8906C9.89062 21.503 10.2061 21.1875 10.5938 21.1875H13.4531C13.8408 21.1875 14.1562 21.503 14.1562 21.8906C14.1562 22.2783 13.8408 22.5938 13.4531 22.5938ZM4.21875 18.375H3.51562C2.35254 18.375 1.40625 17.4287 1.40625 16.2656V13.3594C1.40625 12.1963 2.35254 11.25 3.51562 11.25H4.21875V18.375ZM12 2.8125C7.91162 2.8125 4.60419 5.96356 4.25116 9.84375H3.51562C3.28271 9.84375 3.05548 9.867 2.83521 9.9104C3.16479 5.16614 7.14899 1.40625 12 1.40625C16.851 1.40625 20.8352 5.16614 21.1648 9.9104C20.9445 9.867 20.7173 9.84375 20.4844 9.84375H19.7488C19.3956 5.96173 16.0865 2.8125 12 2.8125ZM22.5938 16.2656C22.5938 17.4287 21.6475 18.375 20.4844 18.375H19.7812V11.25H20.4844C21.6475 11.25 22.5938 12.1963 22.5938 13.3594V16.2656Z" fill="#353A45"/>
</svg>
