<svg width="20" height="20" viewBox="0 0 20 20" fill="none" xmlns="http://www.w3.org/2000/svg">
<path d="M1.39941 15.1019C0.156463 13.0066 -0.278829 10.5296 0.175276 8.13604C0.629382 5.74249 1.94165 3.59704 3.86566 2.10256C5.78967 0.608084 8.19307 -0.132622 10.6246 0.019534C13.056 0.17169 15.3484 1.20624 17.071 2.92892C18.7937 4.6516 19.8283 6.94391 19.9805 9.3754C20.1326 11.8069 19.3919 14.2103 17.8975 16.1343C16.403 18.0583 14.2576 19.3706 11.864 19.8247C9.47046 20.2788 6.99346 19.8436 4.89814 18.6006L1.44291 19.5877C1.29996 19.6286 1.14868 19.6304 1.00476 19.5931C0.860836 19.5559 0.729505 19.4807 0.624375 19.3756C0.519246 19.2705 0.444143 19.1392 0.406849 18.9952C0.369556 18.8513 0.371429 18.7 0.412274 18.5571L1.39941 15.1019Z" fill="white"/>
</svg>
